<svg width="831" height="492" viewBox="0 0 831 492" fill="none" xmlns="http://www.w3.org/2000/svg">
<path d="M565 245.5C565 329.171 497.171 397 413.5 397C329.829 397 262 329.171 262 245.5C262 161.829 329.829 94 413.5 94C497.171 94 565 161.829 565 245.5Z" fill="#1E293B"/>
<path fill-rule="evenodd" clip-rule="evenodd" d="M413.5 391C493.857 391 559 325.857 559 245.5C559 165.143 493.857 100 413.5 100C333.143 100 268 165.143 268 245.5C268 325.857 333.143 391 413.5 391ZM413.5 397C497.171 397 565 329.171 565 245.5C565 161.829 497.171 94 413.5 94C329.829 94 262 161.829 262 245.5C262 329.171 329.829 397 413.5 397Z" fill="#14B8A6"/>
<path fill-rule="evenodd" clip-rule="evenodd" d="M723.376 126L99.4056 126L99.4056 120L723.376 120L723.376 126Z" fill="#14B8A6"/>
<path fill-rule="evenodd" clip-rule="evenodd" d="M723.376 174H100.624V168H723.376V174Z" fill="#14B8A6"/>
<path fill-rule="evenodd" clip-rule="evenodd" d="M736.781 222L87.2186 222L87.2186 216L736.781 216L736.781 222Z" fill="#14B8A6"/>
<path fill-rule="evenodd" clip-rule="evenodd" d="M738 270L86 270L86 264L738 264L738 270Z" fill="#14B8A6"/>
<path fill-rule="evenodd" clip-rule="evenodd" d="M723.376 318H100.624V312H723.376V318Z" fill="#14B8A6"/>
<path fill-rule="evenodd" clip-rule="evenodd" d="M723.376 366L99.4056 366L99.4056 360L723.376 360L723.376 366Z" fill="#14B8A6"/>
<path d="M6 246.75V223.5C26.875 223.5 41.4375 219.125 49.6875 210.375C58.0625 201.625 62.25 187 62.25 166.5V106.5C62.25 89.25 63.875 74.3125 67.125 61.6875C70.5 49.0625 75.9375 38.625 83.4375 30.375C90.9375 22.125 100.938 16 113.438 12C125.938 8.00001 141.375 6 159.75 6V42.75C145.25 42.75 133.812 45 125.438 49.5C117.188 54 111.313 61 107.813 70.5C104.438 79.875 102.75 91.875 102.75 106.5V181.5C102.75 191.25 101.438 200.125 98.8125 208.125C96.3125 216.125 91.625 223 84.75 228.75C77.875 234.5 68.0625 238.938 55.3125 242.063C42.6875 245.188 26.25 246.75 6 246.75ZM159.75 486C141.375 486 125.938 484 113.438 480C100.938 476 90.9375 469.875 83.4375 461.625C75.9375 453.375 70.5 442.938 67.125 430.313C63.875 417.688 62.25 402.75 62.25 385.5V325.5C62.25 305 58.0625 290.375 49.6875 281.625C41.4375 272.875 26.875 268.5 6 268.5V245.25C26.25 245.25 42.6875 246.813 55.3125 249.938C68.0625 253.063 77.875 257.5 84.75 263.25C91.625 269 96.3125 275.875 98.8125 283.875C101.438 291.875 102.75 300.75 102.75 310.5V385.5C102.75 400.125 104.438 412.125 107.813 421.5C111.313 430.875 117.188 437.813 125.438 442.313C133.812 446.938 145.25 449.25 159.75 449.25V486ZM6 268.5V223.5H50.25V268.5H6Z" fill="#14B8A6"/>
<path fill-rule="evenodd" clip-rule="evenodd" d="M0 217.5H6C26.3617 217.5 38.8024 213.174 45.322 206.259L45.3374 206.243L45.353 206.226C52.1254 199.151 56.25 186.453 56.25 166.5V106.5C56.25 88.8974 57.9057 73.4334 61.3144 60.1917L61.3214 60.1648L61.3286 60.1379C64.9084 46.7468 70.7513 35.4102 78.9979 26.339C87.3223 17.1821 98.2851 10.5491 111.609 6.28548C124.884 2.03746 140.983 0 159.75 0H165.75V48.75H159.75C145.776 48.75 135.455 50.9339 128.294 54.7763C121.437 58.5218 116.488 64.3199 113.45 72.5534C110.397 81.0453 108.75 92.2857 108.75 106.5V181.5C108.75 191.771 107.369 201.276 104.527 209.955C101.656 219.113 96.2816 226.927 88.5993 233.352C82.1729 238.727 73.7611 242.885 63.6183 246C73.7611 249.115 82.1729 253.273 88.5993 258.648C96.2814 265.073 101.656 272.887 104.526 282.044C107.369 290.724 108.75 300.229 108.75 310.5V385.5C108.75 399.708 110.396 410.944 113.446 419.435C116.478 427.535 121.424 433.289 128.311 437.045L128.324 437.053L128.338 437.06C135.482 441.006 145.784 443.25 159.75 443.25H165.75V492H159.75C140.983 492 124.884 489.963 111.609 485.715C98.2851 481.451 87.3223 474.818 78.9979 465.661C70.7513 456.59 64.9084 445.253 61.3286 431.862L61.3214 431.835L61.3144 431.808C57.9057 418.567 56.25 403.103 56.25 385.5V325.5C56.25 305.547 52.1254 292.849 45.353 285.774L45.3374 285.758L45.322 285.741C38.8024 278.826 26.3617 274.5 6 274.5H0V217.5ZM6 268.5C20.1141 268.5 31.3424 270.5 39.6851 274.5C43.6814 276.416 47.0155 278.791 49.6875 281.625C58.0625 290.375 62.25 305 62.25 325.5V385.5C62.25 402.75 63.875 417.688 67.125 430.313C70.5 442.938 75.9375 453.375 83.4375 461.625C90.9375 469.875 100.938 476 113.438 480C124.552 483.557 137.99 485.532 153.75 485.926C155.714 485.975 157.714 486 159.75 486V449.25C145.25 449.25 133.812 446.938 125.438 442.313C117.188 437.813 111.313 430.875 107.813 421.5C104.438 412.125 102.75 400.125 102.75 385.5V310.5C102.75 300.75 101.438 291.875 98.8125 283.875C96.3125 275.875 91.625 269 84.75 263.25C78.0445 257.642 68.5445 253.282 56.25 250.171C55.9393 250.092 55.6268 250.015 55.3125 249.938C54.0736 249.631 52.7981 249.339 51.4858 249.063C51.0774 248.977 50.6655 248.892 50.25 248.809V243.191C50.6655 243.108 51.0774 243.023 51.4858 242.937C52.7981 242.661 54.0736 242.369 55.3125 242.063C55.6268 241.986 55.9393 241.908 56.25 241.829C68.5445 238.718 78.0445 234.358 84.75 228.75C91.625 223 96.3125 216.125 98.8125 208.125C101.438 200.125 102.75 191.25 102.75 181.5V106.5C102.75 91.875 104.438 79.875 107.813 70.5C111.313 61 117.188 54 125.438 49.5C133.812 45 145.25 42.75 159.75 42.75V6C157.714 6 155.714 6.02456 153.75 6.07367C137.99 6.46778 124.552 8.44323 113.438 12C100.938 16 90.9375 22.125 83.4375 30.375C75.9375 38.625 70.5 49.0625 67.125 61.6875C63.875 74.3125 62.25 89.25 62.25 106.5V166.5C62.25 187 58.0625 201.625 49.6875 210.375C47.0155 213.209 43.6814 215.584 39.6851 217.5C31.3424 221.5 20.1141 223.5 6 223.5V268.5Z" fill="#14B8A6"/>
<path d="M824.75 245.25V268.5C803.875 268.5 789.312 272.875 781.062 281.625C772.688 290.375 768.5 305 768.5 325.5V385.5C768.5 402.75 766.875 417.688 763.625 430.313C760.25 442.937 754.812 453.375 747.312 461.625C739.812 469.875 729.812 476 717.312 480C704.812 484 689.375 486 671 486V449.25C685.5 449.25 696.938 447 705.312 442.5C713.562 438 719.437 431 722.937 421.5C726.312 412.125 728 400.125 728 385.5V310.5C728 300.75 729.312 291.875 731.937 283.875C734.437 275.875 739.125 269 746 263.25C752.875 257.5 762.687 253.062 775.438 249.937C788.062 246.812 804.5 245.25 824.75 245.25ZM671 5.99997C689.375 5.99997 704.812 7.99997 717.312 12C729.812 16 739.812 22.125 747.312 30.375C754.812 38.625 760.25 49.0625 763.625 61.6875C766.875 74.3125 768.5 89.25 768.5 106.5V166.5C768.5 187 772.688 201.625 781.062 210.375C789.312 219.125 803.875 223.5 824.75 223.5V246.75C804.5 246.75 788.062 245.187 775.438 242.062C762.687 238.937 752.875 234.5 746 228.75C739.125 223 734.437 216.125 731.937 208.125C729.312 200.125 728 191.25 728 181.5V106.5C728 91.875 726.312 79.875 722.937 70.5C719.437 61.125 713.562 54.1875 705.312 49.6875C696.938 45.0625 685.5 42.75 671 42.75V5.99997ZM824.75 223.5V268.5H780.5V223.5H824.75Z" fill="#14B8A6"/>
<path fill-rule="evenodd" clip-rule="evenodd" d="M830.75 274.5H824.75C804.388 274.5 791.948 278.826 785.428 285.741L785.413 285.757L785.397 285.774C778.625 292.849 774.5 305.547 774.5 325.5V385.5C774.5 403.103 772.844 418.567 769.436 431.808L769.429 431.835L769.421 431.862C765.842 445.253 759.999 456.59 751.752 465.661C743.428 474.818 732.465 481.451 719.141 485.715C705.866 489.963 689.767 492 671 492H665V443.25H671C684.974 443.25 695.295 441.066 702.456 437.224C709.313 433.478 714.262 427.68 717.3 419.447C720.353 410.955 722 399.714 722 385.5V310.5C722 300.229 723.381 290.724 726.223 282.045C729.094 272.887 734.468 265.073 742.151 258.648C748.577 253.273 756.989 249.115 767.132 246C756.989 242.885 748.577 238.727 742.151 233.352C734.469 226.927 729.094 219.113 726.224 209.956C723.381 201.276 722 191.771 722 181.5V106.5C722 92.2922 720.354 81.0558 717.304 72.5652C714.272 64.465 709.326 58.7112 702.439 54.9548L702.426 54.9474L702.412 54.9398C695.268 50.9944 684.966 48.75 671 48.75H665V-3.05176e-05H671C689.767 -3.05176e-05 705.866 2.03741 719.141 6.28543C732.465 10.549 743.428 17.182 751.752 26.3389C759.999 35.4102 765.842 46.7468 769.421 60.1379L769.429 60.1648L769.436 60.1917C772.844 73.4333 774.5 88.8973 774.5 106.5V166.5C774.5 186.453 778.625 199.151 785.397 206.226L785.413 206.242L785.428 206.259C791.948 213.174 804.388 217.5 824.75 217.5H830.75V274.5ZM824.75 223.5C810.636 223.5 799.408 221.5 791.065 217.5C787.069 215.584 783.734 213.209 781.062 210.375C772.688 201.625 768.5 187 768.5 166.5V106.5C768.5 89.25 766.875 74.3125 763.625 61.6875C760.25 49.0625 754.812 38.625 747.312 30.375C739.812 22.125 729.812 16 717.312 12C706.198 8.44321 692.76 6.46774 677 6.07364C675.036 6.02454 673.036 5.99997 671 5.99997V42.75C685.5 42.75 696.938 45.0625 705.312 49.6875C713.562 54.1875 719.437 61.125 722.937 70.5C726.312 79.875 728 91.875 728 106.5V181.5C728 191.25 729.312 200.125 731.937 208.125C734.437 216.125 739.125 223 746 228.75C752.706 234.358 762.206 238.718 774.5 241.829C774.811 241.908 775.123 241.985 775.438 242.062C776.676 242.369 777.952 242.661 779.264 242.937C779.673 243.023 780.085 243.108 780.5 243.191V248.809C780.085 248.892 779.673 248.977 779.264 249.063C777.952 249.339 776.676 249.631 775.438 249.937C775.123 250.014 774.811 250.092 774.5 250.171C762.206 253.282 752.706 257.642 746 263.25C739.125 269 734.437 275.875 731.937 283.875C729.312 291.875 728 300.75 728 310.5V385.5C728 400.125 726.312 412.125 722.937 421.5C719.437 431 713.562 438 705.312 442.5C696.938 447 685.5 449.25 671 449.25V486C673.036 486 675.036 485.975 677 485.926C692.76 485.532 706.198 483.557 717.312 480C729.812 476 739.812 469.875 747.312 461.625C754.812 453.375 760.25 442.937 763.625 430.313C766.875 417.688 768.5 402.75 768.5 385.5V325.5C768.5 305 772.688 290.375 781.062 281.625C783.734 278.791 787.069 276.416 791.065 274.5C799.408 270.5 810.636 268.5 824.75 268.5V223.5Z" fill="#14B8A6"/>
</svg>
